<mxfile host="65bd71144e">
    <diagram id="yOZDd0mdIUSVWOJANxy8" name="Page-1">
        <mxGraphModel dx="668" dy="644" grid="1" gridSize="10" guides="1" tooltips="1" connect="1" arrows="1" fold="1" page="0" pageScale="1" pageWidth="900" pageHeight="1600" background="none" math="0" shadow="1">
            <root>
                <mxCell id="0"/>
                <mxCell id="1" parent="0"/>
                <mxCell id="14" value="" style="group" vertex="1" connectable="0" parent="1">
                    <mxGeometry x="140" y="110" width="610" height="390" as="geometry"/>
                </mxCell>
                <mxCell id="17" value="" style="group;strokeWidth=3;shadow=1;" vertex="1" connectable="0" parent="14">
                    <mxGeometry x="20" y="105" width="610" height="405" as="geometry"/>
                </mxCell>
                <mxCell id="2" value="" style="rounded=1;whiteSpace=wrap;html=1;fillColor=#f5f5f5;strokeColor=#666666;arcSize=5;fontColor=#333333;strokeWidth=3;shadow=1;" parent="17" vertex="1">
                    <mxGeometry y="15" width="610" height="390" as="geometry"/>
                </mxCell>
                <mxCell id="9" value="&lt;h1&gt;CARD&lt;/h1&gt;" style="rounded=1;whiteSpace=wrap;html=1;fillColor=#f8cecc;strokeColor=#b85450;strokeWidth=3;shadow=1;" vertex="1" parent="17">
                    <mxGeometry x="375.96491228070175" y="145" width="192.6315789473684" height="150" as="geometry"/>
                </mxCell>
                <mxCell id="13" value="&lt;font style=&quot;font-size: 20px;&quot;&gt;Data Display&lt;/font&gt;" style="text;html=1;align=center;verticalAlign=middle;whiteSpace=wrap;rounded=0;strokeWidth=3;shadow=1;" vertex="1" parent="17">
                    <mxGeometry x="242.19403508771927" y="155" width="133.7719298245614" height="90" as="geometry"/>
                </mxCell>
                <mxCell id="11" value="&lt;h2&gt;&lt;font face=&quot;Comic Sans MS&quot; style=&quot;font-size: 47px;&quot;&gt;&lt;span style=&quot;white-space: pre;&quot;&gt;Card Maker&lt;/span&gt;&lt;/font&gt;&lt;/h2&gt;" style="text;html=1;align=center;verticalAlign=top;whiteSpace=wrap;rounded=0;strokeWidth=3;shadow=1;" vertex="1" parent="17">
                    <mxGeometry x="167.5" width="275" height="180" as="geometry"/>
                </mxCell>
                <mxCell id="6" value="" style="rounded=1;whiteSpace=wrap;html=1;strokeWidth=3;shadow=1;" parent="17" vertex="1">
                    <mxGeometry x="28.161754385964915" y="80" width="214.03508771929825" height="280" as="geometry"/>
                </mxCell>
                <mxCell id="12" style="edgeStyle=none;html=1;exitX=1;exitY=0.5;exitDx=0;exitDy=0;strokeWidth=3;shadow=1;" edge="1" parent="17" source="6" target="9">
                    <mxGeometry relative="1" as="geometry"/>
                </mxCell>
                <mxCell id="10" value="" style="group;strokeWidth=3;shadow=1;" vertex="1" connectable="0" parent="1">
                    <mxGeometry x="190.00175438596492" y="300" width="214.03508771929825" height="280" as="geometry"/>
                </mxCell>
                <mxCell id="8" value="&lt;h1&gt;Form&lt;/h1&gt;" style="text;html=1;align=center;verticalAlign=middle;whiteSpace=wrap;rounded=0;strokeWidth=3;shadow=1;" parent="10" vertex="1">
                    <mxGeometry x="32.10526315789474" y="70" width="149.82456140350877" height="120" as="geometry"/>
                </mxCell>
                <mxCell id="18" value="Actor" style="shape=umlActor;verticalLabelPosition=bottom;verticalAlign=top;html=1;outlineConnect=0;" vertex="1" parent="10">
                    <mxGeometry x="40" y="80" width="30" height="80" as="geometry"/>
                </mxCell>
            </root>
        </mxGraphModel>
    </diagram>
</mxfile>